<?xml version="1.0" encoding="UTF-8"?>
<svg width="36px" height="36px" viewBox="0 0 36 36" version="1.1" xmlns="http://www.w3.org/2000/svg" xmlns:xlink="http://www.w3.org/1999/xlink">
    <!-- Generator: Sketch 58 (84663) - https://sketch.com -->
    <title>calendar</title>
    <desc>Created with Sketch.</desc>
    <g id="Page-1" stroke="none" stroke-width="1" fill="none" fill-rule="evenodd">
        <g id="form_V2" transform="translate(-638.000000, -614.000000)" fill="#F66432">
            <g id="form" transform="translate(370.000000, 126.000000)">
                <g id="input/default-copy-5" transform="translate(239.000000, 462.000000)">
                    <g id="Group" transform="translate(0.000000, 14.000000)">
                        <g id="calendar" transform="translate(29.000000, 12.000000)">
                            <path d="M26.6269655,2.79310345 C26.3383448,1.37855172 25.0851724,0.310344828 23.5862069,0.310344828 C23.2435862,0.310344828 22.9655172,0.587793103 22.9655172,0.931034483 C22.9655172,1.27427586 23.2435862,1.55172414 23.5862069,1.55172414 C24.6128276,1.55172414 25.4482759,2.38717241 25.4482759,3.4137931 C25.4482759,4.44041379 24.6128276,5.27586207 23.5862069,5.27586207 C23.2435862,5.27586207 22.9655172,5.55331034 22.9655172,5.89655172 C22.9655172,6.2397931 23.2435862,6.51724138 23.5862069,6.51724138 C25.0845517,6.51724138 26.3383448,5.44903448 26.6269655,4.03448276 L34.7586207,4.03448276 L34.7586207,9.62068966 L1.24137931,9.62068966 L1.24137931,4.03448276 L9.93103448,4.03448276 L11.7931034,4.03448276 C12.1357241,4.03448276 12.4137931,3.75703448 12.4137931,3.4137931 C12.4137931,3.07055172 12.1357241,2.79310345 11.7931034,2.79310345 L10.665931,2.79310345 C10.9228966,2.07186207 11.6056552,1.55172414 12.4137931,1.55172414 C13.4404138,1.55172414 14.2758621,2.38717241 14.2758621,3.4137931 C14.2758621,4.44041379 13.4404138,5.27586207 12.4137931,5.27586207 C12.0711724,5.27586207 11.7931034,5.55331034 11.7931034,5.89655172 C11.7931034,6.2397931 12.0711724,6.51724138 12.4137931,6.51724138 C14.1250345,6.51724138 15.5172414,5.12503448 15.5172414,3.4137931 C15.5172414,1.70255172 14.1250345,0.310344828 12.4137931,0.310344828 C10.9154483,0.310344828 9.66165517,1.37855172 9.37303448,2.79310345 L0,2.79310345 L0,10.862069 L0,35.6896552 L36,35.6896552 L36,10.862069 L36,2.79310345 L26.6269655,2.79310345 Z M34.7586207,34.4482759 L1.24137931,34.4482759 L1.24137931,10.862069 L34.7586207,10.862069 L34.7586207,34.4482759 Z" id="Shape" fill-rule="nonzero"></path>
                            <text id="3/2" font-family="AndaleMono, Andale Mono" font-size="16" font-weight="normal" letter-spacing="-2.273334">
                                <tspan x="5.50765725" y="27">3/2</tspan>
                            </text>
                            <path d="M16.137931,1.55172414 C17.1645517,1.55172414 18,2.38717241 18,3.4137931 C18,4.44041379 17.1645517,5.27586207 16.137931,5.27586207 C15.7953103,5.27586207 15.5172414,5.55331034 15.5172414,5.89655172 C15.5172414,6.2397931 15.7953103,6.51724138 16.137931,6.51724138 C17.8491724,6.51724138 19.2413793,5.12503448 19.2413793,3.4137931 C19.2413793,1.70255172 17.8491724,0.310344828 16.137931,0.310344828 C15.7953103,0.310344828 15.5172414,0.587793103 15.5172414,0.931034483 C15.5172414,1.27427586 15.7953103,1.55172414 16.137931,1.55172414 Z" id="Path" fill-rule="nonzero"></path>
                            <path d="M19.862069,1.55172414 C20.8886897,1.55172414 21.7241379,2.38717241 21.7241379,3.4137931 C21.7241379,4.44041379 20.8886897,5.27586207 19.862069,5.27586207 C19.5194483,5.27586207 19.2413793,5.55331034 19.2413793,5.89655172 C19.2413793,6.2397931 19.5194483,6.51724138 19.862069,6.51724138 C21.5733103,6.51724138 22.9655172,5.12503448 22.9655172,3.4137931 C22.9655172,1.70255172 21.5733103,0.310344828 19.862069,0.310344828 C19.5194483,0.310344828 19.2413793,0.587793103 19.2413793,0.931034483 C19.2413793,1.27427586 19.5194483,1.55172414 19.862069,1.55172414 Z" id="Path" fill-rule="nonzero"></path>
                        </g>
                    </g>
                </g>
            </g>
        </g>
    </g>
</svg>